<mxfile host="app.diagrams.net" agent="Mozilla/5.0 (Windows NT 10.0; Win64; x64; rv:130.0) Gecko/20100101 Firefox/130.0" version="24.7.7">
  <diagram name="Page-1" id="xpxKZQ_WyY-yNL0vuU9K">
    <mxGraphModel dx="1062" dy="573" grid="1" gridSize="10" guides="1" tooltips="1" connect="1" arrows="1" fold="1" page="1" pageScale="1" pageWidth="827" pageHeight="1169" math="0" shadow="0">
      <root>
        <mxCell id="0" />
        <mxCell id="1" parent="0" />
        <mxCell id="gS8Tz13PUogkv73b-dUA-65" value="" style="edgeStyle=orthogonalEdgeStyle;rounded=0;orthogonalLoop=1;jettySize=auto;html=1;" edge="1" parent="1" source="gS8Tz13PUogkv73b-dUA-63" target="gS8Tz13PUogkv73b-dUA-64">
          <mxGeometry relative="1" as="geometry" />
        </mxCell>
        <mxCell id="gS8Tz13PUogkv73b-dUA-63" value="&lt;font style=&quot;font-size: 10px;&quot;&gt;InputAction&lt;/font&gt;" style="shape=hexagon;perimeter=hexagonPerimeter2;whiteSpace=wrap;html=1;fixedSize=1;" vertex="1" parent="1">
          <mxGeometry x="369" y="210" width="100" height="60" as="geometry" />
        </mxCell>
        <mxCell id="gS8Tz13PUogkv73b-dUA-67" value="" style="edgeStyle=orthogonalEdgeStyle;rounded=0;orthogonalLoop=1;jettySize=auto;html=1;" edge="1" parent="1" source="gS8Tz13PUogkv73b-dUA-64" target="gS8Tz13PUogkv73b-dUA-66">
          <mxGeometry relative="1" as="geometry">
            <Array as="points">
              <mxPoint x="319" y="280" />
              <mxPoint x="319" y="280" />
            </Array>
          </mxGeometry>
        </mxCell>
        <mxCell id="gS8Tz13PUogkv73b-dUA-64" value="&lt;font style=&quot;font-size: 10px;&quot;&gt;OffenseType&lt;/font&gt;" style="ellipse;whiteSpace=wrap;html=1;" vertex="1" parent="1">
          <mxGeometry x="289" y="210" width="60" height="60" as="geometry" />
        </mxCell>
        <mxCell id="gS8Tz13PUogkv73b-dUA-69" value="" style="edgeStyle=orthogonalEdgeStyle;rounded=0;orthogonalLoop=1;jettySize=auto;html=1;" edge="1" parent="1" source="gS8Tz13PUogkv73b-dUA-66" target="gS8Tz13PUogkv73b-dUA-68">
          <mxGeometry relative="1" as="geometry" />
        </mxCell>
        <mxCell id="gS8Tz13PUogkv73b-dUA-86" style="edgeStyle=orthogonalEdgeStyle;rounded=0;orthogonalLoop=1;jettySize=auto;html=1;" edge="1" parent="1" source="gS8Tz13PUogkv73b-dUA-66" target="gS8Tz13PUogkv73b-dUA-85">
          <mxGeometry relative="1" as="geometry" />
        </mxCell>
        <mxCell id="gS8Tz13PUogkv73b-dUA-66" value="&lt;font style=&quot;font-size: 12px;&quot;&gt;Strike&lt;/font&gt;" style="whiteSpace=wrap;html=1;" vertex="1" parent="1">
          <mxGeometry x="296.5" y="290" width="45" height="20" as="geometry" />
        </mxCell>
        <mxCell id="gS8Tz13PUogkv73b-dUA-71" value="" style="edgeStyle=orthogonalEdgeStyle;rounded=0;orthogonalLoop=1;jettySize=auto;html=1;" edge="1" parent="1" source="gS8Tz13PUogkv73b-dUA-68" target="gS8Tz13PUogkv73b-dUA-70">
          <mxGeometry relative="1" as="geometry" />
        </mxCell>
        <mxCell id="gS8Tz13PUogkv73b-dUA-77" value="" style="edgeStyle=orthogonalEdgeStyle;rounded=0;orthogonalLoop=1;jettySize=auto;html=1;" edge="1" parent="1" source="gS8Tz13PUogkv73b-dUA-68" target="gS8Tz13PUogkv73b-dUA-76">
          <mxGeometry relative="1" as="geometry" />
        </mxCell>
        <mxCell id="gS8Tz13PUogkv73b-dUA-68" value="&lt;font style=&quot;font-size: 10px;&quot;&gt;Performed&lt;/font&gt;" style="rhombus;whiteSpace=wrap;html=1;" vertex="1" parent="1">
          <mxGeometry x="219" y="270" width="60" height="60" as="geometry" />
        </mxCell>
        <mxCell id="gS8Tz13PUogkv73b-dUA-75" value="" style="edgeStyle=orthogonalEdgeStyle;rounded=0;orthogonalLoop=1;jettySize=auto;html=1;" edge="1" parent="1" source="gS8Tz13PUogkv73b-dUA-70" target="gS8Tz13PUogkv73b-dUA-74">
          <mxGeometry relative="1" as="geometry" />
        </mxCell>
        <mxCell id="gS8Tz13PUogkv73b-dUA-70" value="Hold" style="rhombus;whiteSpace=wrap;html=1;" vertex="1" parent="1">
          <mxGeometry x="139" y="270" width="60" height="60" as="geometry" />
        </mxCell>
        <mxCell id="gS8Tz13PUogkv73b-dUA-82" style="edgeStyle=orthogonalEdgeStyle;rounded=0;orthogonalLoop=1;jettySize=auto;html=1;" edge="1" parent="1" source="gS8Tz13PUogkv73b-dUA-74">
          <mxGeometry relative="1" as="geometry">
            <mxPoint x="59" y="340" as="targetPoint" />
          </mxGeometry>
        </mxCell>
        <mxCell id="gS8Tz13PUogkv73b-dUA-74" value="Strike" style="whiteSpace=wrap;html=1;" vertex="1" parent="1">
          <mxGeometry x="79" y="290" width="40" height="20" as="geometry" />
        </mxCell>
        <mxCell id="gS8Tz13PUogkv73b-dUA-81" style="edgeStyle=orthogonalEdgeStyle;rounded=0;orthogonalLoop=1;jettySize=auto;html=1;entryX=1;entryY=0.5;entryDx=0;entryDy=0;" edge="1" parent="1" source="gS8Tz13PUogkv73b-dUA-76" target="gS8Tz13PUogkv73b-dUA-79">
          <mxGeometry relative="1" as="geometry" />
        </mxCell>
        <mxCell id="gS8Tz13PUogkv73b-dUA-76" value="Canceled" style="rhombus;whiteSpace=wrap;html=1;" vertex="1" parent="1">
          <mxGeometry x="219" y="350" width="60" height="60" as="geometry" />
        </mxCell>
        <mxCell id="gS8Tz13PUogkv73b-dUA-83" style="edgeStyle=orthogonalEdgeStyle;rounded=0;orthogonalLoop=1;jettySize=auto;html=1;" edge="1" parent="1" source="gS8Tz13PUogkv73b-dUA-79">
          <mxGeometry relative="1" as="geometry">
            <mxPoint x="59" y="340" as="targetPoint" />
          </mxGeometry>
        </mxCell>
        <mxCell id="gS8Tz13PUogkv73b-dUA-79" value="Default" style="whiteSpace=wrap;html=1;" vertex="1" parent="1">
          <mxGeometry x="79" y="370" width="40" height="20" as="geometry" />
        </mxCell>
        <mxCell id="gS8Tz13PUogkv73b-dUA-84" value="" style="endArrow=classic;html=1;rounded=0;" edge="1" parent="1">
          <mxGeometry width="50" height="50" relative="1" as="geometry">
            <mxPoint x="59" y="340" as="sourcePoint" />
            <mxPoint x="39" y="500" as="targetPoint" />
            <Array as="points">
              <mxPoint x="39" y="340" />
            </Array>
          </mxGeometry>
        </mxCell>
        <mxCell id="gS8Tz13PUogkv73b-dUA-124" value="&lt;font style=&quot;font-size: 10px;&quot;&gt;OffenseType&lt;/font&gt;" style="edgeLabel;html=1;align=center;verticalAlign=middle;resizable=0;points=[];" vertex="1" connectable="0" parent="gS8Tz13PUogkv73b-dUA-84">
          <mxGeometry x="0.1111" y="-1" relative="1" as="geometry">
            <mxPoint as="offset" />
          </mxGeometry>
        </mxCell>
        <mxCell id="gS8Tz13PUogkv73b-dUA-85" value="False" style="rhombus;whiteSpace=wrap;html=1;" vertex="1" parent="1">
          <mxGeometry x="289" y="350" width="60" height="60" as="geometry" />
        </mxCell>
        <mxCell id="gS8Tz13PUogkv73b-dUA-91" value="" style="edgeStyle=orthogonalEdgeStyle;rounded=0;orthogonalLoop=1;jettySize=auto;html=1;exitX=0.5;exitY=1;exitDx=0;exitDy=0;" edge="1" parent="1" target="gS8Tz13PUogkv73b-dUA-93" source="gS8Tz13PUogkv73b-dUA-85">
          <mxGeometry relative="1" as="geometry">
            <mxPoint x="319" y="420" as="sourcePoint" />
            <Array as="points" />
          </mxGeometry>
        </mxCell>
        <mxCell id="gS8Tz13PUogkv73b-dUA-92" value="" style="edgeStyle=orthogonalEdgeStyle;rounded=0;orthogonalLoop=1;jettySize=auto;html=1;" edge="1" parent="1" source="gS8Tz13PUogkv73b-dUA-93" target="gS8Tz13PUogkv73b-dUA-96">
          <mxGeometry relative="1" as="geometry" />
        </mxCell>
        <mxCell id="gS8Tz13PUogkv73b-dUA-93" value="Heavy" style="whiteSpace=wrap;html=1;" vertex="1" parent="1">
          <mxGeometry x="296.5" y="440" width="45" height="20" as="geometry" />
        </mxCell>
        <mxCell id="gS8Tz13PUogkv73b-dUA-94" value="" style="edgeStyle=orthogonalEdgeStyle;rounded=0;orthogonalLoop=1;jettySize=auto;html=1;" edge="1" parent="1" source="gS8Tz13PUogkv73b-dUA-96" target="gS8Tz13PUogkv73b-dUA-98">
          <mxGeometry relative="1" as="geometry" />
        </mxCell>
        <mxCell id="gS8Tz13PUogkv73b-dUA-95" value="" style="edgeStyle=orthogonalEdgeStyle;rounded=0;orthogonalLoop=1;jettySize=auto;html=1;" edge="1" parent="1" source="gS8Tz13PUogkv73b-dUA-96" target="gS8Tz13PUogkv73b-dUA-102">
          <mxGeometry relative="1" as="geometry" />
        </mxCell>
        <mxCell id="gS8Tz13PUogkv73b-dUA-96" value="&lt;font style=&quot;font-size: 10px;&quot;&gt;Performed&lt;/font&gt;" style="rhombus;whiteSpace=wrap;html=1;" vertex="1" parent="1">
          <mxGeometry x="219" y="420" width="60" height="60" as="geometry" />
        </mxCell>
        <mxCell id="gS8Tz13PUogkv73b-dUA-97" value="" style="edgeStyle=orthogonalEdgeStyle;rounded=0;orthogonalLoop=1;jettySize=auto;html=1;" edge="1" parent="1" source="gS8Tz13PUogkv73b-dUA-98" target="gS8Tz13PUogkv73b-dUA-100">
          <mxGeometry relative="1" as="geometry" />
        </mxCell>
        <mxCell id="gS8Tz13PUogkv73b-dUA-98" value="Hold" style="rhombus;whiteSpace=wrap;html=1;" vertex="1" parent="1">
          <mxGeometry x="139" y="420" width="60" height="60" as="geometry" />
        </mxCell>
        <mxCell id="gS8Tz13PUogkv73b-dUA-99" style="edgeStyle=orthogonalEdgeStyle;rounded=0;orthogonalLoop=1;jettySize=auto;html=1;" edge="1" parent="1" source="gS8Tz13PUogkv73b-dUA-100">
          <mxGeometry relative="1" as="geometry">
            <mxPoint x="59" y="490" as="targetPoint" />
          </mxGeometry>
        </mxCell>
        <mxCell id="gS8Tz13PUogkv73b-dUA-100" value="Heavy" style="whiteSpace=wrap;html=1;" vertex="1" parent="1">
          <mxGeometry x="79" y="440" width="40" height="20" as="geometry" />
        </mxCell>
        <mxCell id="gS8Tz13PUogkv73b-dUA-101" style="edgeStyle=orthogonalEdgeStyle;rounded=0;orthogonalLoop=1;jettySize=auto;html=1;entryX=1;entryY=0.5;entryDx=0;entryDy=0;" edge="1" parent="1" source="gS8Tz13PUogkv73b-dUA-102" target="gS8Tz13PUogkv73b-dUA-104">
          <mxGeometry relative="1" as="geometry" />
        </mxCell>
        <mxCell id="gS8Tz13PUogkv73b-dUA-102" value="Canceled" style="rhombus;whiteSpace=wrap;html=1;" vertex="1" parent="1">
          <mxGeometry x="219" y="500" width="60" height="60" as="geometry" />
        </mxCell>
        <mxCell id="gS8Tz13PUogkv73b-dUA-103" style="edgeStyle=orthogonalEdgeStyle;rounded=0;orthogonalLoop=1;jettySize=auto;html=1;" edge="1" parent="1" source="gS8Tz13PUogkv73b-dUA-104">
          <mxGeometry relative="1" as="geometry">
            <mxPoint x="59" y="490" as="targetPoint" />
          </mxGeometry>
        </mxCell>
        <mxCell id="gS8Tz13PUogkv73b-dUA-104" value="Default" style="whiteSpace=wrap;html=1;" vertex="1" parent="1">
          <mxGeometry x="79" y="520" width="40" height="20" as="geometry" />
        </mxCell>
        <mxCell id="gS8Tz13PUogkv73b-dUA-106" style="edgeStyle=orthogonalEdgeStyle;rounded=0;orthogonalLoop=1;jettySize=auto;html=1;" edge="1" parent="1" target="gS8Tz13PUogkv73b-dUA-107">
          <mxGeometry relative="1" as="geometry">
            <mxPoint x="319" y="460" as="sourcePoint" />
          </mxGeometry>
        </mxCell>
        <mxCell id="gS8Tz13PUogkv73b-dUA-107" value="False" style="rhombus;whiteSpace=wrap;html=1;" vertex="1" parent="1">
          <mxGeometry x="289" y="500" width="60" height="60" as="geometry" />
        </mxCell>
        <mxCell id="gS8Tz13PUogkv73b-dUA-108" value="" style="edgeStyle=orthogonalEdgeStyle;rounded=0;orthogonalLoop=1;jettySize=auto;html=1;exitX=0.5;exitY=1;exitDx=0;exitDy=0;" edge="1" parent="1" source="gS8Tz13PUogkv73b-dUA-107" target="gS8Tz13PUogkv73b-dUA-110">
          <mxGeometry relative="1" as="geometry">
            <mxPoint x="319" y="570" as="sourcePoint" />
            <Array as="points">
              <mxPoint x="319" y="580" />
              <mxPoint x="319" y="580" />
            </Array>
          </mxGeometry>
        </mxCell>
        <mxCell id="gS8Tz13PUogkv73b-dUA-109" value="" style="edgeStyle=orthogonalEdgeStyle;rounded=0;orthogonalLoop=1;jettySize=auto;html=1;" edge="1" parent="1" source="gS8Tz13PUogkv73b-dUA-110" target="gS8Tz13PUogkv73b-dUA-113">
          <mxGeometry relative="1" as="geometry" />
        </mxCell>
        <mxCell id="gS8Tz13PUogkv73b-dUA-110" value="Deathblow" style="whiteSpace=wrap;html=1;" vertex="1" parent="1">
          <mxGeometry x="289" y="590" width="62.5" height="20" as="geometry" />
        </mxCell>
        <mxCell id="gS8Tz13PUogkv73b-dUA-111" value="" style="edgeStyle=orthogonalEdgeStyle;rounded=0;orthogonalLoop=1;jettySize=auto;html=1;" edge="1" parent="1" source="gS8Tz13PUogkv73b-dUA-113" target="gS8Tz13PUogkv73b-dUA-115">
          <mxGeometry relative="1" as="geometry" />
        </mxCell>
        <mxCell id="gS8Tz13PUogkv73b-dUA-112" value="" style="edgeStyle=orthogonalEdgeStyle;rounded=0;orthogonalLoop=1;jettySize=auto;html=1;" edge="1" parent="1" source="gS8Tz13PUogkv73b-dUA-113" target="gS8Tz13PUogkv73b-dUA-119">
          <mxGeometry relative="1" as="geometry" />
        </mxCell>
        <mxCell id="gS8Tz13PUogkv73b-dUA-113" value="&lt;font style=&quot;font-size: 10px;&quot;&gt;Performed&lt;/font&gt;" style="rhombus;whiteSpace=wrap;html=1;" vertex="1" parent="1">
          <mxGeometry x="219" y="570" width="60" height="60" as="geometry" />
        </mxCell>
        <mxCell id="gS8Tz13PUogkv73b-dUA-114" value="" style="edgeStyle=orthogonalEdgeStyle;rounded=0;orthogonalLoop=1;jettySize=auto;html=1;" edge="1" parent="1" source="gS8Tz13PUogkv73b-dUA-115" target="gS8Tz13PUogkv73b-dUA-117">
          <mxGeometry relative="1" as="geometry" />
        </mxCell>
        <mxCell id="gS8Tz13PUogkv73b-dUA-115" value="Hold" style="rhombus;whiteSpace=wrap;html=1;" vertex="1" parent="1">
          <mxGeometry x="139" y="570" width="60" height="60" as="geometry" />
        </mxCell>
        <mxCell id="gS8Tz13PUogkv73b-dUA-116" style="edgeStyle=orthogonalEdgeStyle;rounded=0;orthogonalLoop=1;jettySize=auto;html=1;" edge="1" parent="1" source="gS8Tz13PUogkv73b-dUA-117">
          <mxGeometry relative="1" as="geometry">
            <mxPoint x="59" y="640" as="targetPoint" />
            <Array as="points">
              <mxPoint x="59" y="600" />
            </Array>
          </mxGeometry>
        </mxCell>
        <mxCell id="gS8Tz13PUogkv73b-dUA-117" value="Deathblow" style="whiteSpace=wrap;html=1;" vertex="1" parent="1">
          <mxGeometry x="69" y="590" width="60" height="20" as="geometry" />
        </mxCell>
        <mxCell id="gS8Tz13PUogkv73b-dUA-118" style="edgeStyle=orthogonalEdgeStyle;rounded=0;orthogonalLoop=1;jettySize=auto;html=1;entryX=1;entryY=0.5;entryDx=0;entryDy=0;" edge="1" parent="1" source="gS8Tz13PUogkv73b-dUA-119" target="gS8Tz13PUogkv73b-dUA-121">
          <mxGeometry relative="1" as="geometry" />
        </mxCell>
        <mxCell id="gS8Tz13PUogkv73b-dUA-119" value="Canceled" style="rhombus;whiteSpace=wrap;html=1;" vertex="1" parent="1">
          <mxGeometry x="219" y="650" width="60" height="60" as="geometry" />
        </mxCell>
        <mxCell id="gS8Tz13PUogkv73b-dUA-120" style="edgeStyle=orthogonalEdgeStyle;rounded=0;orthogonalLoop=1;jettySize=auto;html=1;" edge="1" parent="1" source="gS8Tz13PUogkv73b-dUA-121">
          <mxGeometry relative="1" as="geometry">
            <mxPoint x="59" y="640" as="targetPoint" />
          </mxGeometry>
        </mxCell>
        <mxCell id="gS8Tz13PUogkv73b-dUA-121" value="Default" style="whiteSpace=wrap;html=1;" vertex="1" parent="1">
          <mxGeometry x="79" y="670" width="40" height="20" as="geometry" />
        </mxCell>
        <mxCell id="gS8Tz13PUogkv73b-dUA-122" value="" style="endArrow=classic;html=1;rounded=0;" edge="1" parent="1">
          <mxGeometry width="50" height="50" relative="1" as="geometry">
            <mxPoint x="59" y="490" as="sourcePoint" />
            <mxPoint x="39" y="650" as="targetPoint" />
            <Array as="points">
              <mxPoint x="39" y="490" />
            </Array>
          </mxGeometry>
        </mxCell>
        <mxCell id="gS8Tz13PUogkv73b-dUA-125" value="&lt;font style=&quot;font-size: 10px;&quot;&gt;OffenseType&lt;/font&gt;" style="edgeLabel;html=1;align=center;verticalAlign=middle;resizable=0;points=[];" vertex="1" connectable="0" parent="gS8Tz13PUogkv73b-dUA-122">
          <mxGeometry x="0.1111" y="-1" relative="1" as="geometry">
            <mxPoint as="offset" />
          </mxGeometry>
        </mxCell>
        <mxCell id="gS8Tz13PUogkv73b-dUA-123" value="" style="endArrow=classic;html=1;rounded=0;" edge="1" parent="1">
          <mxGeometry width="50" height="50" relative="1" as="geometry">
            <mxPoint x="59" y="640" as="sourcePoint" />
            <mxPoint x="419" y="730" as="targetPoint" />
            <Array as="points">
              <mxPoint x="39" y="640" />
              <mxPoint x="39" y="730" />
            </Array>
          </mxGeometry>
        </mxCell>
        <mxCell id="gS8Tz13PUogkv73b-dUA-127" value="OffenseType" style="edgeLabel;html=1;align=center;verticalAlign=middle;resizable=0;points=[];" vertex="1" connectable="0" parent="gS8Tz13PUogkv73b-dUA-123">
          <mxGeometry x="0.2973" relative="1" as="geometry">
            <mxPoint as="offset" />
          </mxGeometry>
        </mxCell>
        <mxCell id="gS8Tz13PUogkv73b-dUA-128" value="" style="edgeStyle=orthogonalEdgeStyle;rounded=0;orthogonalLoop=1;jettySize=auto;html=1;exitX=1;exitY=0.5;exitDx=0;exitDy=0;" edge="1" parent="1" target="gS8Tz13PUogkv73b-dUA-130" source="gS8Tz13PUogkv73b-dUA-63">
          <mxGeometry relative="1" as="geometry">
            <mxPoint x="569" y="240" as="sourcePoint" />
          </mxGeometry>
        </mxCell>
        <mxCell id="gS8Tz13PUogkv73b-dUA-129" value="" style="edgeStyle=orthogonalEdgeStyle;rounded=0;orthogonalLoop=1;jettySize=auto;html=1;" edge="1" parent="1" source="gS8Tz13PUogkv73b-dUA-130" target="gS8Tz13PUogkv73b-dUA-132">
          <mxGeometry relative="1" as="geometry">
            <Array as="points">
              <mxPoint x="519" y="280" />
              <mxPoint x="519" y="280" />
            </Array>
          </mxGeometry>
        </mxCell>
        <mxCell id="gS8Tz13PUogkv73b-dUA-130" value="&lt;font style=&quot;font-size: 8px;&quot;&gt;OffenseDirection&lt;/font&gt;" style="ellipse;whiteSpace=wrap;html=1;" vertex="1" parent="1">
          <mxGeometry x="489" y="210" width="60" height="60" as="geometry" />
        </mxCell>
        <mxCell id="gS8Tz13PUogkv73b-dUA-131" style="edgeStyle=orthogonalEdgeStyle;rounded=0;orthogonalLoop=1;jettySize=auto;html=1;" edge="1" parent="1" source="gS8Tz13PUogkv73b-dUA-132" target="gS8Tz13PUogkv73b-dUA-133">
          <mxGeometry relative="1" as="geometry" />
        </mxCell>
        <mxCell id="gS8Tz13PUogkv73b-dUA-132" value="Left" style="whiteSpace=wrap;html=1;" vertex="1" parent="1">
          <mxGeometry x="496.5" y="290" width="45" height="20" as="geometry" />
        </mxCell>
        <mxCell id="gS8Tz13PUogkv73b-dUA-133" value="False" style="rhombus;whiteSpace=wrap;html=1;" vertex="1" parent="1">
          <mxGeometry x="489" y="350" width="60" height="60" as="geometry" />
        </mxCell>
        <mxCell id="gS8Tz13PUogkv73b-dUA-134" value="" style="edgeStyle=orthogonalEdgeStyle;rounded=0;orthogonalLoop=1;jettySize=auto;html=1;exitX=0.5;exitY=1;exitDx=0;exitDy=0;" edge="1" parent="1" source="gS8Tz13PUogkv73b-dUA-133" target="gS8Tz13PUogkv73b-dUA-135">
          <mxGeometry relative="1" as="geometry">
            <mxPoint x="519" y="420" as="sourcePoint" />
            <Array as="points" />
          </mxGeometry>
        </mxCell>
        <mxCell id="gS8Tz13PUogkv73b-dUA-135" value="Neutral" style="whiteSpace=wrap;html=1;" vertex="1" parent="1">
          <mxGeometry x="496.5" y="440" width="45" height="20" as="geometry" />
        </mxCell>
        <mxCell id="gS8Tz13PUogkv73b-dUA-136" style="edgeStyle=orthogonalEdgeStyle;rounded=0;orthogonalLoop=1;jettySize=auto;html=1;" edge="1" parent="1" target="gS8Tz13PUogkv73b-dUA-137">
          <mxGeometry relative="1" as="geometry">
            <mxPoint x="519" y="460" as="sourcePoint" />
          </mxGeometry>
        </mxCell>
        <mxCell id="gS8Tz13PUogkv73b-dUA-137" value="False" style="rhombus;whiteSpace=wrap;html=1;" vertex="1" parent="1">
          <mxGeometry x="489" y="500" width="60" height="60" as="geometry" />
        </mxCell>
        <mxCell id="gS8Tz13PUogkv73b-dUA-138" value="" style="edgeStyle=orthogonalEdgeStyle;rounded=0;orthogonalLoop=1;jettySize=auto;html=1;exitX=0.5;exitY=1;exitDx=0;exitDy=0;entryX=0.5;entryY=0;entryDx=0;entryDy=0;" edge="1" parent="1" source="gS8Tz13PUogkv73b-dUA-137" target="gS8Tz13PUogkv73b-dUA-140">
          <mxGeometry relative="1" as="geometry">
            <mxPoint x="519" y="570" as="sourcePoint" />
            <Array as="points" />
            <mxPoint x="519" y="590" as="targetPoint" />
          </mxGeometry>
        </mxCell>
        <mxCell id="gS8Tz13PUogkv73b-dUA-140" value="Right" style="whiteSpace=wrap;html=1;" vertex="1" parent="1">
          <mxGeometry x="496.5" y="590" width="45" height="20" as="geometry" />
        </mxCell>
        <mxCell id="gS8Tz13PUogkv73b-dUA-148" value="" style="edgeStyle=orthogonalEdgeStyle;rounded=0;orthogonalLoop=1;jettySize=auto;html=1;exitX=1;exitY=0.5;exitDx=0;exitDy=0;entryX=0;entryY=0.5;entryDx=0;entryDy=0;" edge="1" parent="1" source="gS8Tz13PUogkv73b-dUA-132" target="gS8Tz13PUogkv73b-dUA-149">
          <mxGeometry relative="1" as="geometry">
            <mxPoint x="559.5" y="299.91999999999996" as="sourcePoint" />
            <mxPoint x="559" y="300" as="targetPoint" />
          </mxGeometry>
        </mxCell>
        <mxCell id="gS8Tz13PUogkv73b-dUA-149" value="&lt;font style=&quot;font-size: 10px;&quot;&gt;Performed&lt;/font&gt;" style="rhombus;whiteSpace=wrap;html=1;" vertex="1" parent="1">
          <mxGeometry x="559" y="270" width="60" height="60" as="geometry" />
        </mxCell>
        <mxCell id="gS8Tz13PUogkv73b-dUA-150" value="" style="edgeStyle=orthogonalEdgeStyle;rounded=0;orthogonalLoop=1;jettySize=auto;html=1;exitX=1;exitY=0.5;exitDx=0;exitDy=0;" edge="1" parent="1" target="gS8Tz13PUogkv73b-dUA-151" source="gS8Tz13PUogkv73b-dUA-149">
          <mxGeometry relative="1" as="geometry">
            <mxPoint x="719" y="300" as="sourcePoint" />
          </mxGeometry>
        </mxCell>
        <mxCell id="gS8Tz13PUogkv73b-dUA-151" value="Press" style="rhombus;whiteSpace=wrap;html=1;" vertex="1" parent="1">
          <mxGeometry x="639" y="270" width="60" height="60" as="geometry" />
        </mxCell>
        <mxCell id="gS8Tz13PUogkv73b-dUA-154" value="" style="edgeStyle=orthogonalEdgeStyle;rounded=0;orthogonalLoop=1;jettySize=auto;html=1;exitX=1;exitY=0.5;exitDx=0;exitDy=0;" edge="1" parent="1" target="gS8Tz13PUogkv73b-dUA-155" source="gS8Tz13PUogkv73b-dUA-151">
          <mxGeometry relative="1" as="geometry">
            <mxPoint x="779" y="300" as="sourcePoint" />
          </mxGeometry>
        </mxCell>
        <mxCell id="gS8Tz13PUogkv73b-dUA-155" value="Left" style="whiteSpace=wrap;html=1;" vertex="1" parent="1">
          <mxGeometry x="719" y="290" width="40" height="20" as="geometry" />
        </mxCell>
        <mxCell id="gS8Tz13PUogkv73b-dUA-160" style="edgeStyle=orthogonalEdgeStyle;rounded=0;orthogonalLoop=1;jettySize=auto;html=1;entryX=0;entryY=0.5;entryDx=0;entryDy=0;" edge="1" parent="1" source="gS8Tz13PUogkv73b-dUA-157" target="gS8Tz13PUogkv73b-dUA-159">
          <mxGeometry relative="1" as="geometry" />
        </mxCell>
        <mxCell id="gS8Tz13PUogkv73b-dUA-157" value="Canceled" style="rhombus;whiteSpace=wrap;html=1;" vertex="1" parent="1">
          <mxGeometry x="559" y="350" width="60" height="60" as="geometry" />
        </mxCell>
        <mxCell id="gS8Tz13PUogkv73b-dUA-158" style="edgeStyle=orthogonalEdgeStyle;rounded=0;orthogonalLoop=1;jettySize=auto;html=1;entryX=0.5;entryY=0;entryDx=0;entryDy=0;" edge="1" target="gS8Tz13PUogkv73b-dUA-157" parent="1">
          <mxGeometry relative="1" as="geometry">
            <mxPoint x="589" y="330" as="sourcePoint" />
          </mxGeometry>
        </mxCell>
        <mxCell id="gS8Tz13PUogkv73b-dUA-159" value="Default" style="whiteSpace=wrap;html=1;" vertex="1" parent="1">
          <mxGeometry x="719" y="370" width="40" height="20" as="geometry" />
        </mxCell>
        <mxCell id="gS8Tz13PUogkv73b-dUA-161" style="edgeStyle=orthogonalEdgeStyle;rounded=0;orthogonalLoop=1;jettySize=auto;html=1;exitX=1;exitY=0.5;exitDx=0;exitDy=0;" edge="1" parent="1" source="gS8Tz13PUogkv73b-dUA-155">
          <mxGeometry relative="1" as="geometry">
            <mxPoint x="779" y="340" as="targetPoint" />
            <mxPoint x="799" y="300" as="sourcePoint" />
          </mxGeometry>
        </mxCell>
        <mxCell id="gS8Tz13PUogkv73b-dUA-162" style="edgeStyle=orthogonalEdgeStyle;rounded=0;orthogonalLoop=1;jettySize=auto;html=1;exitX=1;exitY=0.5;exitDx=0;exitDy=0;" edge="1" parent="1" source="gS8Tz13PUogkv73b-dUA-159">
          <mxGeometry relative="1" as="geometry">
            <mxPoint x="779" y="340" as="targetPoint" />
            <mxPoint x="779" y="380" as="sourcePoint" />
          </mxGeometry>
        </mxCell>
        <mxCell id="gS8Tz13PUogkv73b-dUA-163" value="" style="endArrow=classic;html=1;rounded=0;" edge="1" parent="1">
          <mxGeometry width="50" height="50" relative="1" as="geometry">
            <mxPoint x="779" y="340" as="sourcePoint" />
            <mxPoint x="789" y="500" as="targetPoint" />
            <Array as="points">
              <mxPoint x="789" y="340" />
              <mxPoint x="789" y="380" />
            </Array>
          </mxGeometry>
        </mxCell>
        <mxCell id="gS8Tz13PUogkv73b-dUA-164" value="&lt;font style=&quot;font-size: 9px;&quot;&gt;OffenseDirection&lt;/font&gt;" style="edgeLabel;html=1;align=center;verticalAlign=middle;resizable=0;points=[];" vertex="1" connectable="0" parent="gS8Tz13PUogkv73b-dUA-163">
          <mxGeometry x="0.1111" y="-1" relative="1" as="geometry">
            <mxPoint as="offset" />
          </mxGeometry>
        </mxCell>
        <mxCell id="gS8Tz13PUogkv73b-dUA-195" value="" style="edgeStyle=orthogonalEdgeStyle;rounded=0;orthogonalLoop=1;jettySize=auto;html=1;exitX=1;exitY=0.5;exitDx=0;exitDy=0;entryX=0;entryY=0.5;entryDx=0;entryDy=0;" edge="1" parent="1" target="gS8Tz13PUogkv73b-dUA-196">
          <mxGeometry relative="1" as="geometry">
            <mxPoint x="541.5" y="450" as="sourcePoint" />
            <mxPoint x="558.5" y="450" as="targetPoint" />
          </mxGeometry>
        </mxCell>
        <mxCell id="gS8Tz13PUogkv73b-dUA-196" value="&lt;font style=&quot;font-size: 10px;&quot;&gt;Performed&lt;/font&gt;" style="rhombus;whiteSpace=wrap;html=1;" vertex="1" parent="1">
          <mxGeometry x="558.5" y="420" width="60" height="60" as="geometry" />
        </mxCell>
        <mxCell id="gS8Tz13PUogkv73b-dUA-197" value="" style="edgeStyle=orthogonalEdgeStyle;rounded=0;orthogonalLoop=1;jettySize=auto;html=1;exitX=1;exitY=0.5;exitDx=0;exitDy=0;" edge="1" parent="1" source="gS8Tz13PUogkv73b-dUA-196" target="gS8Tz13PUogkv73b-dUA-198">
          <mxGeometry relative="1" as="geometry">
            <mxPoint x="718.5" y="450" as="sourcePoint" />
          </mxGeometry>
        </mxCell>
        <mxCell id="gS8Tz13PUogkv73b-dUA-198" value="Press" style="rhombus;whiteSpace=wrap;html=1;" vertex="1" parent="1">
          <mxGeometry x="638.5" y="420" width="60" height="60" as="geometry" />
        </mxCell>
        <mxCell id="gS8Tz13PUogkv73b-dUA-199" value="" style="edgeStyle=orthogonalEdgeStyle;rounded=0;orthogonalLoop=1;jettySize=auto;html=1;exitX=1;exitY=0.5;exitDx=0;exitDy=0;" edge="1" parent="1" source="gS8Tz13PUogkv73b-dUA-198" target="gS8Tz13PUogkv73b-dUA-200">
          <mxGeometry relative="1" as="geometry">
            <mxPoint x="778.5" y="450" as="sourcePoint" />
          </mxGeometry>
        </mxCell>
        <mxCell id="gS8Tz13PUogkv73b-dUA-200" value="&lt;font style=&quot;font-size: 10px;&quot;&gt;Neutral&lt;/font&gt;" style="whiteSpace=wrap;html=1;" vertex="1" parent="1">
          <mxGeometry x="718.5" y="440" width="40" height="20" as="geometry" />
        </mxCell>
        <mxCell id="gS8Tz13PUogkv73b-dUA-201" style="edgeStyle=orthogonalEdgeStyle;rounded=0;orthogonalLoop=1;jettySize=auto;html=1;entryX=0;entryY=0.5;entryDx=0;entryDy=0;" edge="1" parent="1" source="gS8Tz13PUogkv73b-dUA-202" target="gS8Tz13PUogkv73b-dUA-204">
          <mxGeometry relative="1" as="geometry" />
        </mxCell>
        <mxCell id="gS8Tz13PUogkv73b-dUA-202" value="Canceled" style="rhombus;whiteSpace=wrap;html=1;" vertex="1" parent="1">
          <mxGeometry x="558.5" y="500" width="60" height="60" as="geometry" />
        </mxCell>
        <mxCell id="gS8Tz13PUogkv73b-dUA-203" style="edgeStyle=orthogonalEdgeStyle;rounded=0;orthogonalLoop=1;jettySize=auto;html=1;entryX=0.5;entryY=0;entryDx=0;entryDy=0;" edge="1" parent="1" target="gS8Tz13PUogkv73b-dUA-202">
          <mxGeometry relative="1" as="geometry">
            <mxPoint x="588.5" y="480" as="sourcePoint" />
          </mxGeometry>
        </mxCell>
        <mxCell id="gS8Tz13PUogkv73b-dUA-204" value="Default" style="whiteSpace=wrap;html=1;" vertex="1" parent="1">
          <mxGeometry x="718.5" y="520" width="40" height="20" as="geometry" />
        </mxCell>
        <mxCell id="gS8Tz13PUogkv73b-dUA-205" style="edgeStyle=orthogonalEdgeStyle;rounded=0;orthogonalLoop=1;jettySize=auto;html=1;exitX=1;exitY=0.5;exitDx=0;exitDy=0;" edge="1" parent="1" source="gS8Tz13PUogkv73b-dUA-200">
          <mxGeometry relative="1" as="geometry">
            <mxPoint x="778.5" y="490" as="targetPoint" />
            <mxPoint x="798.5" y="450" as="sourcePoint" />
          </mxGeometry>
        </mxCell>
        <mxCell id="gS8Tz13PUogkv73b-dUA-206" style="edgeStyle=orthogonalEdgeStyle;rounded=0;orthogonalLoop=1;jettySize=auto;html=1;exitX=1;exitY=0.5;exitDx=0;exitDy=0;" edge="1" parent="1" source="gS8Tz13PUogkv73b-dUA-204">
          <mxGeometry relative="1" as="geometry">
            <mxPoint x="778.5" y="490" as="targetPoint" />
            <mxPoint x="778.5" y="530" as="sourcePoint" />
          </mxGeometry>
        </mxCell>
        <mxCell id="gS8Tz13PUogkv73b-dUA-207" value="" style="endArrow=classic;html=1;rounded=0;" edge="1" parent="1">
          <mxGeometry width="50" height="50" relative="1" as="geometry">
            <mxPoint x="778.5" y="490" as="sourcePoint" />
            <mxPoint x="788.5" y="650" as="targetPoint" />
            <Array as="points">
              <mxPoint x="788.5" y="490" />
              <mxPoint x="788.5" y="530" />
            </Array>
          </mxGeometry>
        </mxCell>
        <mxCell id="gS8Tz13PUogkv73b-dUA-208" value="&lt;font style=&quot;font-size: 9px;&quot;&gt;OffenseDirection&lt;/font&gt;" style="edgeLabel;html=1;align=center;verticalAlign=middle;resizable=0;points=[];" vertex="1" connectable="0" parent="gS8Tz13PUogkv73b-dUA-207">
          <mxGeometry x="0.1111" y="-1" relative="1" as="geometry">
            <mxPoint as="offset" />
          </mxGeometry>
        </mxCell>
        <mxCell id="gS8Tz13PUogkv73b-dUA-209" value="" style="edgeStyle=orthogonalEdgeStyle;rounded=0;orthogonalLoop=1;jettySize=auto;html=1;exitX=1;exitY=0.5;exitDx=0;exitDy=0;entryX=0;entryY=0.5;entryDx=0;entryDy=0;" edge="1" parent="1" target="gS8Tz13PUogkv73b-dUA-210">
          <mxGeometry relative="1" as="geometry">
            <mxPoint x="541.5" y="600" as="sourcePoint" />
            <mxPoint x="558.5" y="600" as="targetPoint" />
          </mxGeometry>
        </mxCell>
        <mxCell id="gS8Tz13PUogkv73b-dUA-210" value="&lt;font style=&quot;font-size: 10px;&quot;&gt;Performed&lt;/font&gt;" style="rhombus;whiteSpace=wrap;html=1;" vertex="1" parent="1">
          <mxGeometry x="558.5" y="570" width="60" height="60" as="geometry" />
        </mxCell>
        <mxCell id="gS8Tz13PUogkv73b-dUA-211" value="" style="edgeStyle=orthogonalEdgeStyle;rounded=0;orthogonalLoop=1;jettySize=auto;html=1;exitX=1;exitY=0.5;exitDx=0;exitDy=0;" edge="1" parent="1" source="gS8Tz13PUogkv73b-dUA-210" target="gS8Tz13PUogkv73b-dUA-212">
          <mxGeometry relative="1" as="geometry">
            <mxPoint x="718.5" y="600" as="sourcePoint" />
          </mxGeometry>
        </mxCell>
        <mxCell id="gS8Tz13PUogkv73b-dUA-212" value="Press" style="rhombus;whiteSpace=wrap;html=1;" vertex="1" parent="1">
          <mxGeometry x="638.5" y="570" width="60" height="60" as="geometry" />
        </mxCell>
        <mxCell id="gS8Tz13PUogkv73b-dUA-213" value="" style="edgeStyle=orthogonalEdgeStyle;rounded=0;orthogonalLoop=1;jettySize=auto;html=1;exitX=1;exitY=0.5;exitDx=0;exitDy=0;" edge="1" parent="1" source="gS8Tz13PUogkv73b-dUA-212" target="gS8Tz13PUogkv73b-dUA-214">
          <mxGeometry relative="1" as="geometry">
            <mxPoint x="778.5" y="600" as="sourcePoint" />
          </mxGeometry>
        </mxCell>
        <mxCell id="gS8Tz13PUogkv73b-dUA-214" value="Left" style="whiteSpace=wrap;html=1;" vertex="1" parent="1">
          <mxGeometry x="718.5" y="590" width="40" height="20" as="geometry" />
        </mxCell>
        <mxCell id="gS8Tz13PUogkv73b-dUA-215" style="edgeStyle=orthogonalEdgeStyle;rounded=0;orthogonalLoop=1;jettySize=auto;html=1;entryX=0;entryY=0.5;entryDx=0;entryDy=0;" edge="1" parent="1" source="gS8Tz13PUogkv73b-dUA-216" target="gS8Tz13PUogkv73b-dUA-218">
          <mxGeometry relative="1" as="geometry" />
        </mxCell>
        <mxCell id="gS8Tz13PUogkv73b-dUA-216" value="Canceled" style="rhombus;whiteSpace=wrap;html=1;" vertex="1" parent="1">
          <mxGeometry x="558.5" y="650" width="60" height="60" as="geometry" />
        </mxCell>
        <mxCell id="gS8Tz13PUogkv73b-dUA-217" style="edgeStyle=orthogonalEdgeStyle;rounded=0;orthogonalLoop=1;jettySize=auto;html=1;entryX=0.5;entryY=0;entryDx=0;entryDy=0;" edge="1" parent="1" target="gS8Tz13PUogkv73b-dUA-216">
          <mxGeometry relative="1" as="geometry">
            <mxPoint x="588.5" y="630" as="sourcePoint" />
          </mxGeometry>
        </mxCell>
        <mxCell id="gS8Tz13PUogkv73b-dUA-218" value="Default" style="whiteSpace=wrap;html=1;" vertex="1" parent="1">
          <mxGeometry x="718.5" y="670" width="40" height="20" as="geometry" />
        </mxCell>
        <mxCell id="gS8Tz13PUogkv73b-dUA-219" style="edgeStyle=orthogonalEdgeStyle;rounded=0;orthogonalLoop=1;jettySize=auto;html=1;exitX=1;exitY=0.5;exitDx=0;exitDy=0;" edge="1" parent="1" source="gS8Tz13PUogkv73b-dUA-214">
          <mxGeometry relative="1" as="geometry">
            <mxPoint x="778.5" y="640" as="targetPoint" />
            <mxPoint x="798.5" y="600" as="sourcePoint" />
          </mxGeometry>
        </mxCell>
        <mxCell id="gS8Tz13PUogkv73b-dUA-220" style="edgeStyle=orthogonalEdgeStyle;rounded=0;orthogonalLoop=1;jettySize=auto;html=1;exitX=1;exitY=0.5;exitDx=0;exitDy=0;" edge="1" parent="1" source="gS8Tz13PUogkv73b-dUA-218">
          <mxGeometry relative="1" as="geometry">
            <mxPoint x="778.5" y="640" as="targetPoint" />
            <mxPoint x="778.5" y="680" as="sourcePoint" />
          </mxGeometry>
        </mxCell>
        <mxCell id="gS8Tz13PUogkv73b-dUA-223" value="" style="edgeStyle=orthogonalEdgeStyle;rounded=0;orthogonalLoop=1;jettySize=auto;html=1;exitX=1;exitY=0.5;exitDx=0;exitDy=0;entryX=0;entryY=0.5;entryDx=0;entryDy=0;" edge="1" target="gS8Tz13PUogkv73b-dUA-224" parent="1">
          <mxGeometry relative="1" as="geometry">
            <mxPoint x="541.5" y="600" as="sourcePoint" />
            <mxPoint x="558.5" y="600" as="targetPoint" />
          </mxGeometry>
        </mxCell>
        <mxCell id="gS8Tz13PUogkv73b-dUA-224" value="&lt;font style=&quot;font-size: 10px;&quot;&gt;Performed&lt;/font&gt;" style="rhombus;whiteSpace=wrap;html=1;" vertex="1" parent="1">
          <mxGeometry x="558.5" y="570" width="60" height="60" as="geometry" />
        </mxCell>
        <mxCell id="gS8Tz13PUogkv73b-dUA-225" value="" style="edgeStyle=orthogonalEdgeStyle;rounded=0;orthogonalLoop=1;jettySize=auto;html=1;exitX=1;exitY=0.5;exitDx=0;exitDy=0;" edge="1" source="gS8Tz13PUogkv73b-dUA-224" target="gS8Tz13PUogkv73b-dUA-226" parent="1">
          <mxGeometry relative="1" as="geometry">
            <mxPoint x="718.5" y="600" as="sourcePoint" />
          </mxGeometry>
        </mxCell>
        <mxCell id="gS8Tz13PUogkv73b-dUA-226" value="Press" style="rhombus;whiteSpace=wrap;html=1;" vertex="1" parent="1">
          <mxGeometry x="638.5" y="570" width="60" height="60" as="geometry" />
        </mxCell>
        <mxCell id="gS8Tz13PUogkv73b-dUA-227" value="" style="edgeStyle=orthogonalEdgeStyle;rounded=0;orthogonalLoop=1;jettySize=auto;html=1;exitX=1;exitY=0.5;exitDx=0;exitDy=0;" edge="1" source="gS8Tz13PUogkv73b-dUA-226" target="gS8Tz13PUogkv73b-dUA-228" parent="1">
          <mxGeometry relative="1" as="geometry">
            <mxPoint x="778.5" y="600" as="sourcePoint" />
          </mxGeometry>
        </mxCell>
        <mxCell id="gS8Tz13PUogkv73b-dUA-228" value="Left" style="whiteSpace=wrap;html=1;" vertex="1" parent="1">
          <mxGeometry x="718.5" y="590" width="40" height="20" as="geometry" />
        </mxCell>
        <mxCell id="gS8Tz13PUogkv73b-dUA-229" style="edgeStyle=orthogonalEdgeStyle;rounded=0;orthogonalLoop=1;jettySize=auto;html=1;entryX=0;entryY=0.5;entryDx=0;entryDy=0;" edge="1" source="gS8Tz13PUogkv73b-dUA-230" target="gS8Tz13PUogkv73b-dUA-232" parent="1">
          <mxGeometry relative="1" as="geometry" />
        </mxCell>
        <mxCell id="gS8Tz13PUogkv73b-dUA-230" value="Canceled" style="rhombus;whiteSpace=wrap;html=1;" vertex="1" parent="1">
          <mxGeometry x="558.5" y="650" width="60" height="60" as="geometry" />
        </mxCell>
        <mxCell id="gS8Tz13PUogkv73b-dUA-231" style="edgeStyle=orthogonalEdgeStyle;rounded=0;orthogonalLoop=1;jettySize=auto;html=1;entryX=0.5;entryY=0;entryDx=0;entryDy=0;" edge="1" target="gS8Tz13PUogkv73b-dUA-230" parent="1">
          <mxGeometry relative="1" as="geometry">
            <mxPoint x="588.5" y="630" as="sourcePoint" />
          </mxGeometry>
        </mxCell>
        <mxCell id="gS8Tz13PUogkv73b-dUA-232" value="Default" style="whiteSpace=wrap;html=1;" vertex="1" parent="1">
          <mxGeometry x="718.5" y="670" width="40" height="20" as="geometry" />
        </mxCell>
        <mxCell id="gS8Tz13PUogkv73b-dUA-233" style="edgeStyle=orthogonalEdgeStyle;rounded=0;orthogonalLoop=1;jettySize=auto;html=1;exitX=1;exitY=0.5;exitDx=0;exitDy=0;" edge="1" source="gS8Tz13PUogkv73b-dUA-228" parent="1">
          <mxGeometry relative="1" as="geometry">
            <mxPoint x="778.5" y="640" as="targetPoint" />
            <mxPoint x="798.5" y="600" as="sourcePoint" />
          </mxGeometry>
        </mxCell>
        <mxCell id="gS8Tz13PUogkv73b-dUA-234" style="edgeStyle=orthogonalEdgeStyle;rounded=0;orthogonalLoop=1;jettySize=auto;html=1;exitX=1;exitY=0.5;exitDx=0;exitDy=0;" edge="1" source="gS8Tz13PUogkv73b-dUA-232" parent="1">
          <mxGeometry relative="1" as="geometry">
            <mxPoint x="778.5" y="640" as="targetPoint" />
            <mxPoint x="778.5" y="680" as="sourcePoint" />
          </mxGeometry>
        </mxCell>
        <mxCell id="gS8Tz13PUogkv73b-dUA-235" value="" style="endArrow=classic;html=1;rounded=0;" edge="1" parent="1">
          <mxGeometry width="50" height="50" relative="1" as="geometry">
            <mxPoint x="778.5" y="640" as="sourcePoint" />
            <mxPoint x="419" y="730" as="targetPoint" />
            <Array as="points">
              <mxPoint x="788.5" y="640" />
              <mxPoint x="789" y="730" />
            </Array>
          </mxGeometry>
        </mxCell>
        <mxCell id="gS8Tz13PUogkv73b-dUA-236" value="&lt;font style=&quot;font-size: 9px;&quot;&gt;OffenseDirection&lt;/font&gt;" style="edgeLabel;html=1;align=center;verticalAlign=middle;resizable=0;points=[];" vertex="1" connectable="0" parent="gS8Tz13PUogkv73b-dUA-235">
          <mxGeometry x="0.1111" y="-1" relative="1" as="geometry">
            <mxPoint as="offset" />
          </mxGeometry>
        </mxCell>
        <mxCell id="gS8Tz13PUogkv73b-dUA-243" style="edgeStyle=orthogonalEdgeStyle;rounded=0;orthogonalLoop=1;jettySize=auto;html=1;entryX=0;entryY=0.5;entryDx=0;entryDy=0;" edge="1" parent="1" source="gS8Tz13PUogkv73b-dUA-238" target="gS8Tz13PUogkv73b-dUA-242">
          <mxGeometry relative="1" as="geometry" />
        </mxCell>
        <mxCell id="gS8Tz13PUogkv73b-dUA-249" value="" style="edgeStyle=orthogonalEdgeStyle;rounded=0;orthogonalLoop=1;jettySize=auto;html=1;" edge="1" parent="1" source="gS8Tz13PUogkv73b-dUA-238" target="gS8Tz13PUogkv73b-dUA-248">
          <mxGeometry relative="1" as="geometry" />
        </mxCell>
        <mxCell id="gS8Tz13PUogkv73b-dUA-238" value="Hold" style="rhombus;whiteSpace=wrap;html=1;" vertex="1" parent="1">
          <mxGeometry x="529" y="750" width="60" height="60" as="geometry" />
        </mxCell>
        <mxCell id="gS8Tz13PUogkv73b-dUA-239" value="" style="endArrow=classic;html=1;rounded=0;entryX=0;entryY=0.5;entryDx=0;entryDy=0;" edge="1" parent="1" target="gS8Tz13PUogkv73b-dUA-238">
          <mxGeometry width="50" height="50" relative="1" as="geometry">
            <mxPoint x="419" y="730" as="sourcePoint" />
            <mxPoint x="329" y="780" as="targetPoint" />
            <Array as="points">
              <mxPoint x="419" y="780" />
            </Array>
          </mxGeometry>
        </mxCell>
        <mxCell id="gS8Tz13PUogkv73b-dUA-241" value="OffenseDirection" style="edgeLabel;html=1;align=center;verticalAlign=middle;resizable=0;points=[];" vertex="1" connectable="0" parent="gS8Tz13PUogkv73b-dUA-239">
          <mxGeometry x="-0.2181" y="1" relative="1" as="geometry">
            <mxPoint x="38" y="1" as="offset" />
          </mxGeometry>
        </mxCell>
        <mxCell id="gS8Tz13PUogkv73b-dUA-254" style="edgeStyle=orthogonalEdgeStyle;rounded=0;orthogonalLoop=1;jettySize=auto;html=1;" edge="1" parent="1" source="gS8Tz13PUogkv73b-dUA-242">
          <mxGeometry relative="1" as="geometry">
            <mxPoint x="419" y="950" as="targetPoint" />
            <Array as="points">
              <mxPoint x="680" y="780" />
              <mxPoint x="680" y="920" />
              <mxPoint x="419" y="920" />
            </Array>
          </mxGeometry>
        </mxCell>
        <mxCell id="gS8Tz13PUogkv73b-dUA-259" value="OffenseDirection" style="edgeLabel;html=1;align=center;verticalAlign=middle;resizable=0;points=[];" vertex="1" connectable="0" parent="gS8Tz13PUogkv73b-dUA-254">
          <mxGeometry x="0.2846" y="-1" relative="1" as="geometry">
            <mxPoint x="18" as="offset" />
          </mxGeometry>
        </mxCell>
        <mxCell id="gS8Tz13PUogkv73b-dUA-242" value="Stance" style="whiteSpace=wrap;html=1;" vertex="1" parent="1">
          <mxGeometry x="609" y="770" width="50" height="20" as="geometry" />
        </mxCell>
        <mxCell id="gS8Tz13PUogkv73b-dUA-253" style="edgeStyle=orthogonalEdgeStyle;rounded=0;orthogonalLoop=1;jettySize=auto;html=1;entryX=0;entryY=0.5;entryDx=0;entryDy=0;" edge="1" parent="1" source="gS8Tz13PUogkv73b-dUA-248" target="gS8Tz13PUogkv73b-dUA-252">
          <mxGeometry relative="1" as="geometry" />
        </mxCell>
        <mxCell id="gS8Tz13PUogkv73b-dUA-248" value="False" style="rhombus;whiteSpace=wrap;html=1;" vertex="1" parent="1">
          <mxGeometry x="529" y="830" width="60" height="60" as="geometry" />
        </mxCell>
        <mxCell id="gS8Tz13PUogkv73b-dUA-250" value="" style="endArrow=classic;html=1;rounded=0;entryX=0;entryY=0.5;entryDx=0;entryDy=0;" edge="1" parent="1" target="gS8Tz13PUogkv73b-dUA-248">
          <mxGeometry width="50" height="50" relative="1" as="geometry">
            <mxPoint x="419" y="780" as="sourcePoint" />
            <mxPoint x="429" y="840" as="targetPoint" />
            <Array as="points">
              <mxPoint x="419" y="860" />
            </Array>
          </mxGeometry>
        </mxCell>
        <mxCell id="gS8Tz13PUogkv73b-dUA-251" value="OffenseType" style="edgeLabel;html=1;align=center;verticalAlign=middle;resizable=0;points=[];" vertex="1" connectable="0" parent="gS8Tz13PUogkv73b-dUA-250">
          <mxGeometry x="0.4038" relative="1" as="geometry">
            <mxPoint as="offset" />
          </mxGeometry>
        </mxCell>
        <mxCell id="gS8Tz13PUogkv73b-dUA-257" style="edgeStyle=orthogonalEdgeStyle;rounded=0;orthogonalLoop=1;jettySize=auto;html=1;" edge="1" parent="1" source="gS8Tz13PUogkv73b-dUA-252">
          <mxGeometry relative="1" as="geometry">
            <mxPoint x="399" y="900" as="targetPoint" />
            <Array as="points">
              <mxPoint x="669" y="860" />
              <mxPoint x="669" y="900" />
            </Array>
          </mxGeometry>
        </mxCell>
        <mxCell id="gS8Tz13PUogkv73b-dUA-258" value="OffenseType" style="edgeLabel;html=1;align=center;verticalAlign=middle;resizable=0;points=[];" vertex="1" connectable="0" parent="gS8Tz13PUogkv73b-dUA-257">
          <mxGeometry x="0.2931" relative="1" as="geometry">
            <mxPoint x="47" as="offset" />
          </mxGeometry>
        </mxCell>
        <mxCell id="gS8Tz13PUogkv73b-dUA-252" value="&lt;font style=&quot;font-size: 10px;&quot;&gt;Deflection&lt;/font&gt;" style="whiteSpace=wrap;html=1;" vertex="1" parent="1">
          <mxGeometry x="609" y="850" width="50" height="20" as="geometry" />
        </mxCell>
        <mxCell id="gS8Tz13PUogkv73b-dUA-260" value="" style="endArrow=classic;html=1;rounded=0;" edge="1" parent="1">
          <mxGeometry width="50" height="50" relative="1" as="geometry">
            <mxPoint x="399" y="900" as="sourcePoint" />
            <mxPoint x="399" y="950" as="targetPoint" />
          </mxGeometry>
        </mxCell>
      </root>
    </mxGraphModel>
  </diagram>
</mxfile>
